<svg version="1.1" id="Layer_1" xmlns="http://www.w3.org/2000/svg" xmlns:xlink="http://www.w3.org/1999/xlink" x="0px" y="0px"
	 width="100%" viewBox="0 0 500 500" enable-background="new 0 0 500 500" xml:space="preserve">
<path fill="#000000" opacity="1.000000" stroke="none" 
	d="
M291.000000,501.000000 
	C194.000031,501.000000 97.500046,501.000000 1.000052,501.000000 
	C1.000035,334.333405 1.000035,167.666794 1.000017,1.000141 
	C167.666565,1.000094 334.333130,1.000094 500.999756,1.000047 
	C500.999847,167.666519 500.999847,334.333038 500.999939,500.999786 
	C431.166656,501.000000 361.333344,501.000000 291.000000,501.000000 
M111.218842,172.322891 
	C111.192345,174.883820 111.165848,177.444733 110.979523,180.372833 
	C110.979523,180.372833 110.975845,180.773285 110.199211,181.235321 
	C110.133476,181.727844 110.010292,182.220367 110.010185,182.712906 
	C110.000969,227.705643 109.993767,272.698395 110.041588,317.691101 
	C110.042847,318.869934 110.650795,320.048157 110.979530,321.622803 
	C110.979530,321.622803 111.139336,321.985321 111.018570,322.866821 
	C111.327652,325.610352 111.636734,328.353912 111.981812,331.956970 
	C111.997688,333.289520 111.812019,334.660858 112.060135,335.948669 
	C115.046066,351.446594 120.565262,366.094971 127.640953,380.120300 
	C138.321777,401.291687 155.465714,416.609131 174.585342,429.770355 
	C181.314392,434.402435 188.993103,437.797272 196.534912,441.074158 
	C209.076111,446.523346 222.052139,450.644165 236.345840,451.832611 
	C244.431396,451.888275 252.517288,452.001831 260.602264,451.955414 
	C262.431488,451.944885 264.257568,451.378204 266.962585,451.031189 
	C271.461304,450.367004 275.979736,449.813934 280.455200,449.018951 
	C297.442810,446.001434 313.263123,439.396790 327.152893,429.639313 
	C336.500977,423.072357 345.670227,416.003815 353.943542,407.503601 
	C367.506622,393.568665 376.596863,377.627136 382.906677,359.815826 
	C386.334351,350.140198 388.244659,339.927002 390.977692,329.084381 
	C390.938660,326.720978 390.899658,324.357544 391.020447,321.627045 
	C391.020447,321.627045 391.024200,321.226685 391.800781,320.764679 
	C391.866516,320.272156 391.989746,319.779633 391.989838,319.287109 
	C391.999054,274.294342 392.006256,229.301575 391.958435,184.308884 
	C391.957184,183.130020 391.349243,181.951813 391.020447,180.377213 
	C391.020447,180.377213 390.860626,180.014786 390.981384,179.150299 
	C390.672607,176.733902 390.363831,174.317520 390.019440,171.041199 
	C388.766174,152.855270 381.470184,136.558334 373.135437,120.882675 
	C364.716125,105.047943 352.648834,91.993866 338.472321,80.850090 
	C323.464844,69.053131 306.776978,60.821087 288.393005,56.006077 
	C280.955658,54.058132 273.369659,52.677464 265.641937,50.179066 
	C257.559753,50.119530 249.477295,50.001911 241.395660,50.044727 
	C239.567230,50.054413 237.741745,50.621826 235.029541,50.968758 
	C226.928848,52.526695 218.685501,53.566792 210.757278,55.750820 
	C194.460007,60.240311 179.518921,67.684845 166.269073,78.304543 
	C160.530762,82.903778 154.321426,87.080322 149.295410,92.369926 
	C137.819626,104.447601 128.279251,117.988846 122.118309,133.627213 
	C117.251785,145.979965 112.355461,158.351990 111.218842,172.322891 
z"/>
<path fill="#88F0AD" opacity="1.000000" stroke="none" 
	d="
M111.139336,321.985321 
	C111.139336,321.985321 110.979530,321.622803 111.008560,320.940521 
	C111.017014,273.763245 110.996429,227.268265 110.975845,180.773285 
	C110.975845,180.773285 110.979523,180.372833 111.310440,179.876587 
	C111.742523,176.887283 111.843681,174.394257 111.944839,171.901215 
	C112.355461,158.351990 117.251785,145.979965 122.118309,133.627213 
	C128.279251,117.988846 137.819626,104.447601 149.295410,92.369926 
	C154.321426,87.080322 160.530762,82.903778 166.269073,78.304543 
	C179.518921,67.684845 194.460007,60.240311 210.757278,55.750820 
	C218.685501,53.566792 226.928848,52.526695 235.943146,50.997429 
	C246.521606,51.030285 256.186462,51.034470 265.851318,51.038654 
	C273.369659,52.677464 280.955658,54.058132 288.393005,56.006077 
	C306.776978,60.821087 323.464844,69.053131 338.472321,80.850090 
	C352.648834,91.993866 364.716125,105.047943 373.135437,120.882675 
	C381.470184,136.558334 388.766174,152.855270 390.020142,171.901703 
	C390.300781,175.179718 390.580688,177.597260 390.860626,180.014786 
	C390.860626,180.014786 391.020447,180.377213 390.991394,181.059479 
	C390.982971,228.236710 391.003571,274.731689 391.024170,321.226685 
	C391.024200,321.226685 391.020447,321.627045 390.696289,322.105469 
	C390.527863,325.041351 390.683624,327.498840 390.839386,329.956299 
	C388.244659,339.927002 386.334351,350.140198 382.906677,359.815826 
	C376.596863,377.627136 367.506622,393.568665 353.943542,407.503601 
	C345.670227,416.003815 336.500977,423.072357 327.152893,429.639313 
	C313.263123,439.396790 297.442810,446.001434 280.455200,449.018951 
	C275.979736,449.813934 271.461304,450.367004 266.052917,451.002533 
	C255.400467,451.005066 245.657669,451.036255 235.914886,451.067474 
	C222.052139,450.644165 209.076111,446.523346 196.534912,441.074158 
	C188.993103,437.797272 181.314392,434.402435 174.585342,429.770355 
	C155.465714,416.609131 138.321777,401.291687 127.640953,380.120300 
	C120.565262,366.094971 115.046066,351.446594 112.060135,335.948669 
	C111.812019,334.660858 111.997688,333.289520 111.980499,331.086182 
	C111.699226,327.472046 111.419281,324.728668 111.139336,321.985321 
M233.721680,73.228119 
	C233.428558,73.337715 233.225906,73.538574 232.265732,74.012772 
	C218.728775,75.576126 206.155029,80.405327 194.227875,86.536705 
	C175.225235,96.305367 160.617889,111.061150 149.426697,129.185104 
	C137.996109,147.696793 131.986588,167.798492 132.001373,189.639893 
	C132.029022,230.471970 131.975647,271.304138 132.053360,312.136078 
	C132.062744,317.056030 132.576370,321.983917 133.027237,326.892426 
	C134.193527,339.589325 137.944702,351.614716 143.579987,362.946320 
	C152.479416,380.841583 164.956543,395.840759 181.226639,407.630035 
	C196.835632,418.940338 214.025406,426.321716 233.739944,429.674133 
	C237.187515,429.764679 240.635086,429.855225 244.017242,429.980682 
	C244.017242,429.980682 243.986923,429.912994 244.489258,430.596588 
	C249.297440,430.373810 254.105606,430.151031 259.329407,429.178558 
	C271.523682,426.645569 284.162506,425.371002 295.799377,421.260101 
	C310.250946,416.154816 323.086548,407.326233 333.899292,396.328583 
	C345.699860,384.326172 355.488129,370.711487 361.541473,354.817627 
	C366.776489,341.072449 370.178986,326.994171 370.083282,312.045105 
	C369.816742,270.418945 370.073029,228.789597 369.901001,187.162430 
	C369.875519,180.996475 369.014832,174.769241 367.913605,168.683823 
	C363.467865,144.116867 351.153473,123.577400 334.101105,105.880280 
	C323.533203,94.912788 310.736389,86.645287 296.431641,81.362015 
	C287.536224,78.076614 278.087250,76.289986 268.650543,73.461128 
	C268.400116,73.308548 268.153625,73.149849 268.037628,73.001762 
	C268.037628,73.001762 268.026917,73.128960 267.550323,72.432213 
	C264.339386,72.306458 261.128479,72.180702 257.982239,72.020065 
	C257.982239,72.020065 258.012329,72.087128 257.512939,71.403450 
	C253.004517,71.631340 248.496078,71.859238 244.017761,72.020065 
	C244.017761,72.020065 244.082489,72.054947 243.187225,71.884857 
	C240.115829,72.299622 237.044434,72.714386 233.962296,73.001839 
	C233.962296,73.001839 234.088943,72.985016 233.721680,73.228119 
z"/>
<path fill="#AFF4C8" opacity="1.000000" stroke="none" 
	d="
M391.412476,320.995667 
	C391.003571,274.731689 390.982971,228.236710 390.993286,181.257523 
	C391.349243,181.951813 391.957184,183.130020 391.958435,184.308884 
	C392.006256,229.301575 391.999054,274.294342 391.989838,319.287109 
	C391.989746,319.779633 391.866516,320.272156 391.412476,320.995667 
z"/>
<path fill="#AFF4C8" opacity="1.000000" stroke="none" 
	d="
M110.587524,181.004303 
	C110.996429,227.268265 111.017014,273.763245 111.006699,320.742432 
	C110.650795,320.048157 110.042847,318.869934 110.041588,317.691101 
	C109.993767,272.698395 110.000969,227.705643 110.010185,182.712906 
	C110.010292,182.220367 110.133476,181.727844 110.587524,181.004303 
z"/>
<path fill="#EBFBF2" opacity="1.000000" stroke="none" 
	d="
M265.746643,50.608860 
	C256.186462,51.034470 246.521606,51.030285 236.385834,50.979309 
	C237.741745,50.621826 239.567230,50.054413 241.395660,50.044727 
	C249.477295,50.001911 257.559753,50.119530 265.746643,50.608860 
z"/>
<path fill="#EBFBF2" opacity="1.000000" stroke="none" 
	d="
M236.130371,451.450043 
	C245.657669,451.036255 255.400467,451.005066 265.614166,451.020691 
	C264.257568,451.378204 262.431488,451.944885 260.602264,451.955414 
	C252.517288,452.001831 244.431396,451.888275 236.130371,451.450043 
z"/>
<path fill="#AFF4C8" opacity="1.000000" stroke="none" 
	d="
M111.078949,322.426086 
	C111.419281,324.728668 111.699226,327.472046 111.962502,330.656433 
	C111.636734,328.353912 111.327652,325.610352 111.078949,322.426086 
z"/>
<path fill="#AFF4C8" opacity="1.000000" stroke="none" 
	d="
M111.581841,172.112061 
	C111.843681,174.394257 111.742523,176.887283 111.390350,179.692993 
	C111.165848,177.444733 111.192345,174.883820 111.581841,172.112061 
z"/>
<path fill="#AFF4C8" opacity="1.000000" stroke="none" 
	d="
M390.921021,179.582550 
	C390.580688,177.597260 390.300781,175.179718 390.037964,172.331665 
	C390.363831,174.317520 390.672607,176.733902 390.921021,179.582550 
z"/>
<path fill="#AFF4C8" opacity="1.000000" stroke="none" 
	d="
M390.908539,329.520325 
	C390.683624,327.498840 390.527863,325.041351 390.616364,322.289001 
	C390.899658,324.357544 390.938660,326.720978 390.908539,329.520325 
z"/>
<path fill="#000000" opacity="1.000000" stroke="none" 
	d="
M233.121948,429.169769 
	C214.025406,426.321716 196.835632,418.940338 181.226639,407.630035 
	C164.956543,395.840759 152.479416,380.841583 143.579987,362.946320 
	C137.944702,351.614716 134.193527,339.589325 133.027237,326.892426 
	C132.576370,321.983917 132.062744,317.056030 132.053360,312.136078 
	C131.975647,271.304138 132.029022,230.471970 132.001373,189.639893 
	C131.986588,167.798492 137.996109,147.696793 149.426697,129.185104 
	C160.617889,111.061150 175.225235,96.305367 194.227875,86.536705 
	C206.155029,80.405327 218.728775,75.576126 232.938004,73.923363 
	C233.897232,73.622856 234.056793,73.339874 234.088943,72.985016 
	C234.088943,72.985016 233.962296,73.001839 234.417847,73.009171 
	C237.943100,72.695976 241.012802,72.375458 244.082489,72.054947 
	C244.082489,72.054947 244.017761,72.020065 244.468262,72.014198 
	C249.283295,72.034599 253.647812,72.060867 258.012329,72.087128 
	C258.012329,72.087128 257.982239,72.020065 258.138977,72.426086 
	C261.539429,72.931053 264.783173,73.030006 268.026917,73.128960 
	C268.026917,73.128960 268.037628,73.001762 268.046326,73.233154 
	C268.055054,73.464554 268.389160,73.833519 268.389160,73.833519 
	C268.389160,73.833519 268.886719,73.830681 268.886719,73.830681 
	C278.087250,76.289986 287.536224,78.076614 296.431641,81.362015 
	C310.736389,86.645287 323.533203,94.912788 334.101105,105.880280 
	C351.153473,123.577400 363.467865,144.116867 367.913605,168.683823 
	C369.014832,174.769241 369.875519,180.996475 369.901001,187.162430 
	C370.073029,228.789597 369.816742,270.418945 370.083282,312.045105 
	C370.178986,326.994171 366.776489,341.072449 361.541473,354.817627 
	C355.488129,370.711487 345.699860,384.326172 333.899292,396.328583 
	C323.086548,407.326233 310.250946,416.154816 295.799377,421.260101 
	C284.162506,425.371002 271.523682,426.645569 258.665558,429.590332 
	C253.330109,429.972412 248.658524,429.942719 243.986923,429.912994 
	C243.986923,429.912994 244.017242,429.980682 243.859100,429.573700 
	C240.174606,429.167755 236.648285,429.168762 233.121948,429.169769 
M260.085480,110.999062 
	C253.719406,111.050323 247.353317,111.101578 240.167023,111.430168 
	C240.111343,143.654755 240.070160,175.879395 239.958954,208.103806 
	C239.953156,209.785568 239.351669,211.465271 238.308472,212.980453 
	C234.621918,209.206970 230.968491,205.400436 227.242157,201.666656 
	C218.624771,193.032104 210.044235,184.358307 201.283813,175.870667 
	C199.049118,173.705551 196.332916,172.739426 193.607422,175.805267 
	C191.068100,178.661697 188.319382,181.359848 185.453674,183.890854 
	C182.272491,186.700500 182.241302,189.003250 185.355820,192.047806 
	C196.588486,203.028214 207.624863,214.209366 218.740234,225.309860 
	C226.402206,232.961639 234.065704,240.611908 241.740906,248.250412 
	C246.516556,253.003220 255.402908,253.069031 260.126648,248.397934 
	C262.732208,245.821365 265.357361,243.262833 267.903900,240.628708 
	C276.895813,231.327560 285.739319,221.879395 294.868469,212.715485 
	C302.116699,205.439621 309.654266,198.448517 317.164764,191.439575 
	C319.309875,189.437698 319.689972,187.887634 317.371979,185.736435 
	C313.835114,182.454056 310.462921,178.989532 307.103088,175.522629 
	C304.532684,172.870270 302.194183,173.733719 300.018402,175.895325 
	C287.639709,188.193436 275.300842,200.531631 262.144440,212.545181 
	C262.096283,180.371704 262.062378,148.198166 261.958313,116.024864 
	C261.953064,114.399849 261.341858,112.776802 260.085480,110.999062 
z"/>
<path fill="#DDFAE7" opacity="1.000000" stroke="none" 
	d="
M244.238098,430.254791 
	C248.658524,429.942719 253.330109,429.972412 258.457764,429.965210 
	C254.105606,430.151031 249.297440,430.373810 244.238098,430.254791 
z"/>
<path fill="#DCFAE7" opacity="1.000000" stroke="none" 
	d="
M257.762634,71.745293 
	C253.647812,72.060867 249.283295,72.034599 244.453217,72.047729 
	C248.496078,71.859238 253.004517,71.631340 257.762634,71.745293 
z"/>
<path fill="#DDFAE7" opacity="1.000000" stroke="none" 
	d="
M233.430939,429.421936 
	C236.648285,429.168762 240.174606,429.167755 243.891800,429.556213 
	C240.635086,429.855225 237.187515,429.764679 233.430939,429.421936 
z"/>
<path fill="#DCFAE7" opacity="1.000000" stroke="none" 
	d="
M267.788635,72.780586 
	C264.783173,73.030006 261.539429,72.931053 258.106628,72.443527 
	C261.128479,72.180702 264.339386,72.306458 267.788635,72.780586 
z"/>
<path fill="#DCFAE7" opacity="1.000000" stroke="none" 
	d="
M243.634857,71.969894 
	C241.012802,72.375458 237.943100,72.695976 234.423218,73.072823 
	C237.044434,72.714386 240.115829,72.299622 243.634857,71.969894 
z"/>
<path fill="#DCFAE7" opacity="1.000000" stroke="none" 
	d="
M233.905304,73.106567 
	C234.056793,73.339874 233.897232,73.622856 233.362015,73.832321 
	C233.225906,73.538574 233.428558,73.337715 233.905304,73.106567 
z"/>
<path fill="#DCFAE7" opacity="1.000000" stroke="none" 
	d="
M268.768616,73.645905 
	C268.886719,73.830681 268.389160,73.833519 268.389160,73.833519 
	C268.389160,73.833519 268.055054,73.464554 267.983063,73.224792 
	C268.153625,73.149849 268.400116,73.308548 268.768616,73.645905 
z"/>
<path fill="#88F0AE" opacity="1.000000" stroke="none" 
	d="
M262.948425,212.856186 
	C275.300842,200.531631 287.639709,188.193436 300.018402,175.895325 
	C302.194183,173.733719 304.532684,172.870270 307.103088,175.522629 
	C310.462921,178.989532 313.835114,182.454056 317.371979,185.736435 
	C319.689972,187.887634 319.309875,189.437698 317.164764,191.439575 
	C309.654266,198.448517 302.116699,205.439621 294.868469,212.715485 
	C285.739319,221.879395 276.895813,231.327560 267.903900,240.628708 
	C265.357361,243.262833 262.732208,245.821365 260.126648,248.397934 
	C255.402908,253.069031 246.516556,253.003220 241.740906,248.250412 
	C234.065704,240.611908 226.402206,232.961639 218.740234,225.309860 
	C207.624863,214.209366 196.588486,203.028214 185.355820,192.047806 
	C182.241302,189.003250 182.272491,186.700500 185.453674,183.890854 
	C188.319382,181.359848 191.068100,178.661697 193.607422,175.805267 
	C196.332916,172.739426 199.049118,173.705551 201.283813,175.870667 
	C210.044235,184.358307 218.624771,193.032104 227.242157,201.666656 
	C230.968491,205.400436 234.621918,209.206970 238.832886,213.324265 
	C239.904846,212.496109 240.927856,211.325317 240.930756,210.152008 
	C241.012650,177.152451 240.991486,144.152618 240.987244,111.152840 
	C247.353317,111.101578 253.719406,111.050323 260.544464,111.534760 
	C261.003448,146.188553 261.003448,180.306641 261.003448,214.424744 
	C261.433075,214.459305 261.862701,214.493881 262.292328,214.528442 
	C262.511017,213.971024 262.729736,213.413605 262.948425,212.856186 
z"/>
<path fill="#9FF2BD" opacity="1.000000" stroke="none" 
	d="
M262.546448,212.700684 
	C262.729736,213.413605 262.511017,213.971024 262.292328,214.528442 
	C261.862701,214.493881 261.433075,214.459305 261.003448,214.424744 
	C261.003448,180.306641 261.003448,146.188553 261.008118,111.611649 
	C261.341858,112.776802 261.953064,114.399849 261.958313,116.024864 
	C262.062378,148.198166 262.096283,180.371704 262.546448,212.700684 
z"/>
<path fill="#9FF2BD" opacity="1.000000" stroke="none" 
	d="
M240.577133,111.291504 
	C240.991486,144.152618 241.012650,177.152451 240.930756,210.152008 
	C240.927856,211.325317 239.904846,212.496109 239.192413,213.407013 
	C239.351669,211.465271 239.953156,209.785568 239.958954,208.103806 
	C240.070160,175.879395 240.111343,143.654755 240.577133,111.291504 
z"/>
</svg>